<svg viewBox="0 0 1078 240" xmlns="http://www.w3.org/2000/svg">
  <g transform="translate(-54,-72) scale(0.75)">

  <defs>
    <clipPath id="cloud">
      <rect x="104" y="286" width="316" height="90" rx="45"/>
      <circle cx="178" cy="272" r="64"/>
      <circle cx="272" cy="228" r="92"/>
      <circle cx="352" cy="270" r="66"/>
    </clipPath>
  </defs>
  <g clip-path="url(#cloud)">
    <rect x="0" y="0" width="512" height="512" fill="#F3B01C"/>
    <path d="M 262 298
             C 300 275 360 262 440 285
             L 532 300 L 532 460 L 315 460 L 315 395
             C 278 362 258 330 262 298 Z" fill="#8D2676"/>
    <path d="M -20 -20 L 532 -20 L 532 310
             L 440 285
             C 360 262 300 275 262 298
             C 245 262 210 240 100 225
             L -20 222 Z" fill="#EE342F"/>
    <g fill="none" stroke="#FFFFFF" stroke-width="20" stroke-linecap="round">
      <path d="M 262 298 C 245 262 210 240 100 225"/>
      <path d="M 262 298 C 300 275 360 262 440 285"/>
      <path d="M 262 298 C 258 330 278 362 315 395"/>
    </g>
  </g>

  </g>
  <path d="M366.03999999999996 75.76V92.2H343.72V160.0H323.2V92.2H300.88V75.76Z M401.8 92.08Q408.88 92.08 414.22 94.96000000000001Q419.56 97.84 422.44 102.52000000000001V93.04H442.96000000000004V160.0H422.44V150.52Q419.44 155.2 414.1 158.07999999999998Q408.76 160.96 401.68 160.96Q393.52000000000004 160.96 386.80000000000007 156.7Q380.08000000000004 152.44 376.18000000000006 144.57999999999998Q372.28000000000003 136.72 372.28000000000003 126.4Q372.28000000000003 116.08 376.18000000000006 108.28Q380.08000000000004 100.48 386.80000000000007 96.28Q393.52000000000004 92.08 401.8 92.08ZM407.8 109.96000000000001Q401.68 109.96000000000001 397.42 114.34Q393.16 118.72 393.16 126.4Q393.16 134.08 397.42 138.58Q401.68 143.08 407.8 143.08Q413.92 143.08 418.18 138.64Q422.44 134.2 422.44 126.52000000000001Q422.44 118.84 418.18 114.4Q413.92 109.96000000000001 407.8 109.96000000000001Z M499.00000000000006 92.08Q507.28000000000003 92.08 514.0 96.28Q520.72 100.48 524.62 108.28Q528.52 116.08 528.52 126.4Q528.52 136.72 524.62 144.57999999999998Q520.72 152.44 514.0 156.7Q507.28000000000003 160.96 499.00000000000006 160.96Q491.92 160.96 486.64 158.14Q481.36 155.32 478.36 150.64V160.0H457.84000000000003V71.2H478.36V102.52000000000001Q481.24 97.84 486.64 94.96000000000001Q492.04 92.08 499.00000000000006 92.08ZM492.88000000000005 109.96000000000001Q486.76000000000005 109.96000000000001 482.5 114.4Q478.24 118.84 478.24 126.52000000000001Q478.24 134.2 482.5 138.64Q486.76000000000005 143.08 492.88000000000005 143.08Q499.00000000000006 143.08 503.32000000000005 138.58Q507.64000000000004 134.08 507.64000000000004 126.4Q507.64000000000004 118.72 503.38 114.34Q499.12 109.96000000000001 492.88000000000005 109.96000000000001Z M591.76 145.12H560.3199999999999L555.28 160.0H533.8L564.28 75.76H588.04L618.52 160.0H596.8ZM586.48 129.28 576.04 98.44 565.72 129.28Z M648.28 75.76V160.0H627.76V75.76Z" fill="#2B2A2A"/>
  <path d="M665.4799999999999 152.08Q665.4799999999999 148.36 667.9999999999999 145.84Q670.5199999999999 143.32 674.2399999999999 143.32Q677.8399999999999 143.32 680.3599999999999 145.84Q682.8799999999999 148.36 682.8799999999999 152.08Q682.8799999999999 155.8 680.3599999999999 158.32Q677.8399999999999 160.84 674.2399999999999 160.84Q670.5199999999999 160.84 667.9999999999999 158.32Q665.4799999999999 155.8 665.4799999999999 152.08Z M735.6799999999998 75.52000000000001Q748.9999999999999 75.52000000000001 759.3799999999999 82.06Q769.7599999999999 88.60000000000001 774.4399999999998 100.6H757.9999999999999Q754.7599999999999 94.0 748.9999999999999 90.75999999999999Q743.2399999999999 87.52 735.6799999999998 87.52Q727.3999999999999 87.52 720.9199999999998 91.24000000000001Q714.4399999999998 94.96000000000001 710.7799999999999 101.92Q707.1199999999999 108.88 707.1199999999999 118.12Q707.1199999999999 127.36 710.7799999999999 134.32Q714.4399999999998 141.28 720.9199999999998 145.06Q727.3999999999999 148.84 735.6799999999998 148.84Q743.2399999999999 148.84 748.9999999999999 145.60000000000002Q754.7599999999999 142.36 757.9999999999999 135.76H774.4399999999998Q769.7599999999999 147.76 759.3799999999999 154.24Q748.9999999999999 160.72 735.6799999999998 160.72Q723.9199999999998 160.72 714.1999999999998 155.26Q704.4799999999999 149.8 698.78 140.08Q693.0799999999999 130.36 693.0799999999999 118.12Q693.0799999999999 105.88 698.78 96.16Q704.4799999999999 86.44 714.2599999999999 80.98Q724.0399999999998 75.52000000000001 735.6799999999998 75.52000000000001Z M804.0799999999998 71.2V160.0H790.3999999999999V71.2Z M817.6399999999998 126.88Q817.6399999999998 116.80000000000001 822.0799999999998 109.0Q826.5199999999999 101.2 834.1999999999998 97.0Q841.8799999999998 92.8 851.3599999999998 92.8Q860.8399999999998 92.8 868.5199999999998 97.0Q876.1999999999998 101.2 880.6399999999999 109.0Q885.0799999999998 116.80000000000001 885.0799999999998 126.88Q885.0799999999998 136.96 880.5199999999998 144.76Q875.9599999999998 152.56 868.0999999999998 156.82Q860.2399999999998 161.08 850.7599999999998 161.08Q841.3999999999999 161.08 833.8399999999999 156.82Q826.2799999999999 152.56 821.9599999999998 144.82Q817.6399999999998 137.08 817.6399999999998 126.88ZM871.0399999999998 126.88Q871.0399999999998 119.68 868.2799999999997 114.7Q865.5199999999998 109.72 860.9599999999998 107.2Q856.3999999999999 104.68 851.1199999999998 104.68Q845.8399999999998 104.68 841.3399999999998 107.2Q836.8399999999998 109.72 834.1999999999998 114.7Q831.5599999999998 119.68 831.5599999999998 126.88Q831.5599999999998 137.56 837.0199999999998 143.38Q842.4799999999998 149.2 850.7599999999998 149.2Q856.0399999999998 149.2 860.6599999999999 146.68Q865.2799999999999 144.16 868.1599999999999 139.12Q871.0399999999998 134.08 871.0399999999998 126.88Z M958.5199999999999 93.88V160.0H944.8399999999999V152.2Q941.5999999999999 156.28 936.3799999999999 158.62Q931.1599999999999 160.96 925.2799999999999 160.96Q917.4799999999999 160.96 911.3 157.72Q905.1199999999999 154.48 901.5799999999999 148.12Q898.0399999999998 141.76 898.0399999999998 132.76V93.88H911.5999999999999V130.72Q911.5999999999999 139.6 916.04 144.34Q920.4799999999999 149.08 928.1599999999999 149.08Q935.8399999999999 149.08 940.3399999999999 144.34Q944.8399999999999 139.6 944.8399999999999 130.72V93.88Z M1003.2799999999999 92.8Q1009.7599999999999 92.8 1016.06 95.62Q1022.3599999999999 98.44 1026.08 103.12V71.2H1039.8799999999999V160.0H1026.08V150.04Q1022.7199999999999 154.84 1016.78 157.96Q1010.8399999999999 161.08 1003.1599999999999 161.08Q994.5199999999999 161.08 987.3799999999999 156.7Q980.2399999999999 152.32 976.0999999999999 144.45999999999998Q971.9599999999999 136.6 971.9599999999999 126.64Q971.9599999999999 116.68 976.0999999999999 109.0Q980.2399999999999 101.32 987.3799999999999 97.06Q994.5199999999999 92.8 1003.2799999999999 92.8ZM1006.0399999999998 104.68Q1000.7599999999999 104.68 996.1999999999998 107.26Q991.6399999999999 109.84 988.8199999999999 114.82000000000001Q985.9999999999999 119.80000000000001 985.9999999999999 126.64Q985.9999999999999 133.48 988.8199999999999 138.64Q991.6399999999999 143.8 996.2599999999999 146.5Q1000.8799999999999 149.2 1006.0399999999998 149.2Q1011.3199999999998 149.2 1015.8799999999999 146.56Q1020.4399999999998 143.92000000000002 1023.2599999999999 138.82Q1026.08 133.72 1026.08 126.88Q1026.08 120.03999999999999 1023.2599999999999 115.0Q1020.4399999999998 109.96000000000001 1015.8799999999999 107.32000000000001Q1011.3199999999998 104.68 1006.0399999999998 104.68Z" fill="#8D2676"/>
</svg>